# xmcd
#
# Track frame offsets: 
#        150
#        28139
#        51086
#        77167
#        90792
#        111405
#
# Disc length: 1947 seconds
#
# Revision: 0
# Processed by: cddbd v1.5.2PL0 Copyright (c) Steve Scherf et al.
# Submitted via: ExactAudioCopy v0.95b4
#
DISCID=41079906
DTITLE=Bud Spencer Blues Explosion - Live Circolo Artisti
DYEAR=2011
DGENRE=blues
TTITLE0=Intro fuoco lento
TTITLE1=Killing in the name
TTITLE2=Voodoo child
TTITLE3=Esci piano
TTITLE4=Hommage a Violette Nozieres
TTITLE5=Dark was the night cold was the ground
EXTD=
EXTT0=
EXTT1=
EXTT2=
EXTT3=
EXTT4=
EXTT5=
PLAYORDER=
